<svg width="38" height="38" viewBox="0 0 38 38" fill="none" xmlns="http://www.w3.org/2000/svg">
<path d="M25.3736 32.5704L25.374 27.4819C25.3743 24.6712 23.0958 22.3925 20.2851 22.3925H8.88951C6.0792 22.3925 3.80091 24.6706 3.80059 27.4809L3.80002 32.5704M34.1996 32.5706L34.2 27.4822C34.2003 24.6715 31.9218 22.3928 29.1111 22.3928M24.3934 6.42917C25.6431 7.35643 26.453 8.84295 26.453 10.5186C26.453 12.1943 25.6431 13.6809 24.3934 14.6081M19.7819 10.5184C19.7819 13.3289 17.5035 15.6073 14.6929 15.6073C11.8824 15.6073 9.60402 13.3289 9.60402 10.5184C9.60402 7.70783 11.8824 5.42944 14.6929 5.42944C17.5035 5.42944 19.7819 7.70783 19.7819 10.5184Z" stroke="#646464" stroke-width="3.04" stroke-linecap="round" stroke-linejoin="round"/>
</svg>
