<svg width="25" height="24" viewBox="0 0 25 24" fill="none" xmlns="http://www.w3.org/2000/svg">
<path fill-rule="evenodd" clip-rule="evenodd" d="M13.8427 4.31932C13.4152 2.56429 10.9176 2.56429 10.4901 4.31932C10.4263 4.58304 10.3011 4.82797 10.1247 5.03417C9.94833 5.24037 9.72577 5.40202 9.47512 5.50596C9.22448 5.6099 8.95284 5.65319 8.6823 5.63232C8.41177 5.61145 8.14998 5.527 7.91825 5.38584C6.3747 4.44532 4.6084 6.2116 5.54892 7.75513C6.15644 8.75189 5.61755 10.0524 4.48352 10.328C2.72734 10.7544 2.72734 13.2531 4.48352 13.6783C4.74731 13.7423 4.99229 13.8676 5.19849 14.0441C5.40469 14.2206 5.56629 14.4433 5.67014 14.694C5.77398 14.9448 5.81712 15.2166 5.79606 15.4872C5.775 15.7578 5.69032 16.0196 5.54892 16.2513C4.6084 17.7948 6.3747 19.5611 7.91825 18.6205C8.14994 18.4792 8.41175 18.3945 8.68236 18.3734C8.95296 18.3524 9.22472 18.3955 9.4755 18.4993C9.72628 18.6032 9.94899 18.7648 10.1255 18.971C10.302 19.1772 10.4273 19.4221 10.4912 19.6859C10.9176 21.4421 13.4163 21.4421 13.8416 19.6859C13.9057 19.4223 14.0311 19.1775 14.2077 18.9714C14.3842 18.7654 14.6069 18.6039 14.8576 18.5001C15.1083 18.3963 15.3799 18.3531 15.6505 18.374C15.921 18.3949 16.1828 18.4794 16.4145 18.6205C17.9581 19.5611 19.7244 17.7948 18.7838 16.2513C18.6427 16.0195 18.5582 15.7577 18.5373 15.4872C18.5163 15.2167 18.5595 14.945 18.6634 14.6943C18.7672 14.4436 18.9287 14.221 19.1347 14.0444C19.3408 13.8679 19.5856 13.7425 19.8492 13.6783C21.6054 13.252 21.6054 10.7533 19.8492 10.328C19.5855 10.2641 19.3405 10.1388 19.1343 9.96233C18.9281 9.78583 18.7665 9.56313 18.6626 9.31235C18.5588 9.06158 18.5156 8.78982 18.5367 8.51922C18.5578 8.24862 18.6424 7.98681 18.7838 7.75513C19.7244 6.2116 17.9581 4.44532 16.4145 5.38584C16.1828 5.52723 15.921 5.61191 15.6504 5.63297C15.3798 5.65403 15.108 5.61089 14.8573 5.50705C14.6065 5.40321 14.3838 5.24161 14.2073 5.03541C14.0308 4.82921 13.9055 4.58424 13.8416 4.32045L13.8427 4.31932Z" stroke="white"/>
<path d="M14.1664 12.0031C14.1664 13.1076 13.271 14.0031 12.1664 14.0031C11.0618 14.0031 10.1664 13.1076 10.1664 12.0031C10.1664 10.8985 11.0618 10.0031 12.1664 10.0031C13.271 10.0031 14.1664 10.8985 14.1664 12.0031Z" stroke="white"/>
</svg>
